<?xml version="1.0" encoding="utf-8"?>
<!-- Generator: Adobe Illustrator 23.0.0, SVG Export Plug-In . SVG Version: 6.00 Build 0)  -->
<svg version="1.1" id="Слой_1" xmlns="http://www.w3.org/2000/svg" xmlns:xlink="http://www.w3.org/1999/xlink" x="0px" y="0px"
	 viewBox="0 0 595.28 841.89" style="enable-background:new 0 0 595.28 841.89;" xml:space="preserve">
<style type="text/css">
	.st0{fill:#C7A676;stroke:#000000;stroke-width:8;stroke-miterlimit:10;}
	.st1{fill:none;stroke:#000000;stroke-width:8;stroke-linecap:round;stroke-miterlimit:10;}
	.st2{fill:#E1DDD1;stroke:#000000;stroke-width:8;stroke-miterlimit:10;}
	.st3{fill:#711B28;stroke:#000000;stroke-width:8;stroke-miterlimit:10;}
</style>
<g>
	<g>
		<path class="st0" d="M195.19,31.2v204.93c0,0.41-0.56,0.54-0.74,0.17c-4.34-8.46-9.05-10.61-19.76-10.61H13.97
			c-2.01,0-3.64-1.63-3.64-3.64V14.33c0-2.01,1.63-3.64,3.64-3.64h160.72C186.01,10.7,195.19,19.87,195.19,31.2z"/>
	</g>
	<g>
		<path class="st0" d="M195.19,31.2v204.93c0,0.41,0.56,0.54,0.74,0.17c4.34-8.46,9.05-10.61,19.76-10.61h160.72
			c2.01,0,3.64-1.63,3.64-3.64V14.33c0-2.01-1.63-3.64-3.64-3.64H215.69C204.37,10.7,195.19,19.87,195.19,31.2z"/>
	</g>
	<g>
		<g>
			<path class="st1" d="M36.91,59.52c4.5-6.59,10.3-9.6,17.39-9.05c6.51-1.6,11.79,0.88,15.84,7.46c16.2,5.68,14.05-8.68,28.59-9.36
				c12.04-0.56,13.61,14.72,28.59,9.36c3.44-2.6,6.89-5.2,10.33-7.8c9.28-1.42,16.91,1.71,22.9,9.39"/>
			<path class="st1" d="M36.91,123.69c4.5-6.59,10.3-9.6,17.39-9.05c6.51-1.6,11.79,0.88,15.84,7.46
				c16.2,5.68,14.05-8.68,28.59-9.36c12.04-0.56,13.61,14.72,28.59,9.36c3.44-2.6,6.89-5.2,10.33-7.8
				c9.28-1.42,16.91,1.71,22.9,9.39"/>
			<path class="st1" d="M36.91,187.87c4.5-6.59,10.3-9.6,17.39-9.05c6.51-1.6,11.79,0.88,15.84,7.46
				c16.2,5.68,14.05-8.68,28.59-9.36c12.04-0.56,13.61,14.72,28.59,9.36c3.44-2.6,6.89-5.2,10.33-7.8
				c9.28-1.42,16.91,1.71,22.9,9.39"/>
		</g>
	</g>
	<g>
		<path class="st2" d="M348.14,141.35c0,1.07-0.32,2.11-0.94,3.13v0.01l-14.19,47.47c0,7.35-20.32,13.3-45.39,13.3
			c-25.07,0-45.39-5.95-45.39-13.3l-14.19-47.47v-0.01c-0.62-1.02-0.94-2.06-0.94-3.13c0-9.8,27.09-17.74,60.52-17.74
			C321.05,123.61,348.14,131.55,348.14,141.35z"/>
	</g>
	<ellipse class="st3" cx="287.62" cy="141.35" rx="60.52" ry="17.74"/>
	<g>
		<path class="st1" d="M303.41,40.48c5.08,12.11,10.24,19.49,3.49,31.3c-9.02,15.78-15.19,12.17-7.98,31.3"/>
		<path class="st1" d="M280.39,65.53c-14.7,19.58-18.42,22.79-8.56,46.17"/>
	</g>
</g>
</svg>
